{"title":"A.place.in.the.sun.1951.SWESUB.DVDRip.XviD.-Zen_Bud","uid":5652032,"size":1475792412,"categoryP":"video","categoryS":"movies","magnet":"?xt=urn:btih:d22b52cb37d921af21e7de36af0d36c490e87e91&amp;dn=A.place.in.the.sun.1951.SWESUB.DVDRip.XviD.-Zen_Bud&amp;tr=udp%3A%2F%2Ftracker.openbittorrent.com%3A80&amp;tr=udp%3A%2F%2Fopen.demonii.com%3A1337&amp;tr=udp%3A%2F%2Ftracker.coppersurfer.tk%3A6969&amp;tr=udp%3A%2F%2Fexodus.desync.com%3A6969","seeders":1,"leechers":0,"uploader":"Zen_Bud","files":-1,"time":1277667340,"description":"General\nComplete name                    : A place in the sun.avi\nFormat                           : AVI\nFile size                        : 1.37 GiB\nDuration                         : 1h 57mn\nOverall bit rate                 : 1 682 Kbps\n\nVideo\n\nFormat                           : MPEG-4 Visual\nCodec ID/Hint                    : XviD\nDuration                         : 1h 57mn\nBit rate                         : 1 541 Kbps\nWidth                            : 718 pixels\nHeight                           : 576 pixels\nDisplay aspect ratio             : 4:3\nStream size                      : 1.26 GiB (92%)\nWriting library                  : XviD 1.1.2 (UTC 2006-11-01)\n\nAudio\n\nFormat                           : MPEG Audio\nCodec ID/Hint                    : MP3\nDuration                         : 1h 57mn\nBit rate                         : 128 Kbps\nChannel(s)                       : 2 channels\nSampling rate                    : 48.0 KHz\nStream size                      : 107 MiB (8%)\n\n\n","torrent":{"xt":"urn:btih:d22b52cb37d921af21e7de36af0d36c490e87e91","amp;dn":"A.place.in.the.sun.1951.SWESUB.DVDRip.XviD.-Zen_Bud","amp;tr":["udp%3A%2F%2Ftracker.openbittorrent.com%3A80","udp%3A%2F%2Fopen.demonii.com%3A1337","udp%3A%2F%2Ftracker.coppersurfer.tk%3A6969","udp%3A%2F%2Fexodus.desync.com%3A6969"],"infoHash":"d22b52cb37d921af21e7de36af0d36c490e87e91","infoHashBuffer":{"type":"Buffer","data":[210,43,82,203,55,217,33,175,33,231,222,54,175,13,54,196,144,232,126,145]},"announce":[],"urlList":[]}}